# xmcd CD database file
#
# Track frame offsets:
#	150
#	9572
#	21580
#	37670
#	56839
#	73682
#	87147
#	103690
#	112425
#	124777
#	138792
#	149487
#	161015
#	175037
#	192525
#	217047
#
# Disc length: 2952 seconds
#
# Revision: 2
# Processed by: cddbd v1.5.1PL0 Copyright (c) Steve Scherf et al.
# Submitted via: CDex 1.40Beta5
#
DISCID=ee0b8610
DTITLE=Blues on My Radio - A 20 Year Celebration of "Those Lowdown Blues Wit
DTITLE=h Bob Corritore"
DYEAR=2003
DGENRE=Blues
TTITLE0=Lowell Fulson    ---   Worried Life Blues
TTITLE1=Lazy  Lester      ---   Made up my mind
TTITLE2=Loisiana Red    ---   Going Train Blues
TTITLE3=Johny Dyer       ---   Nine Below Zero
TTITLE4=Charlie Musselwhite   ---    Baby - O
TTITLE5=Rick Estrin -  ---   - Sonny Boy Jump
TTITLE6=Harmaonica Fats and Bernie Pearl ---   You got your mouth Stuck out
TTITLE7=Lazy Lester ---   Jambalaya
TTITLE8=Lazy Lester ---   Nothing but the Devil
TTITLE9=Robert JR. Lockwood   ---   Dust My Broom
TTITLE10=Lowell Fulson  ---   Big leg Woman
TTITLE11=Lowell Fulson  ---   You Don´t Knoe my Mind
TTITLE12=LIL èd   ---   Midnight Burning
TTITLE13=Lazy Lester   ---   Patrol Wagon Blues
TTITLE14=Louisiana Red   ---   Sad Night
TTITLE15=Lowell Fulson   ---   These Lowdown Blues Theme
EXTD=YEAR: 2003 ID3G:   0
EXTT0=
EXTT1=
EXTT2=
EXTT3=
EXTT4=
EXTT5=
EXTT6=
EXTT7=
EXTT8=
EXTT9=
EXTT10=
EXTT11=
EXTT12=
EXTT13=
EXTT14=
EXTT15=
PLAYORDER=
